<?xml version="1.0" encoding="UTF-8"?>
<svg version="1.1" xmlns="http://www.w3.org/2000/svg" width="512" height="512">
<path d="M0 0 C1.98475657 -0.00543494 3.9695091 -0.01256521 5.95425415 -0.02124023 C11.29316426 -0.03931352 16.63176157 -0.03247282 21.97067642 -0.01972389 C27.58942688 -0.00951257 33.20815266 -0.01901194 38.8269043 -0.02526855 C48.25802357 -0.03252147 57.68901706 -0.02301936 67.12011719 -0.00390625 C77.98394827 0.01785785 88.84747894 0.01080481 99.71130276 -0.01121187 C109.081711 -0.02943328 118.45202943 -0.03189138 127.82244968 -0.0214572 C133.40018694 -0.01525918 138.97778356 -0.01428395 144.55551147 -0.02760315 C149.8023301 -0.03925969 155.04876589 -0.03095901 160.29554367 -0.00802612 C162.20735416 -0.00279094 164.11919754 -0.00416227 166.03099442 -0.01307678 C194.17884177 -0.13210639 218.28954091 8.49517826 238.61328125 28.51757812 C256.65449276 46.52867076 266.07170927 70.28824319 266.16906738 95.5949707 C266.161905 97.13167825 266.15370037 98.66838124 266.14453125 100.20507812 C266.14723866 101.84399646 266.15113131 103.48291321 266.15612793 105.12182617 C266.16196455 108.52701378 266.15365202 111.93177658 266.13476562 115.33691406 C266.11197931 119.64983463 266.12513432 123.96175871 266.14905548 128.27464294 C266.16367371 131.65009753 266.15883523 135.02532503 266.14854431 138.40078735 C266.14592096 139.98882167 266.14898724 141.57687826 266.15846252 143.16488647 C266.28492213 170.29711384 256.7643809 194.07825122 237.61328125 213.51757812 C221.39113133 229.76685539 198.87811032 240.70823496 175.67296767 240.76416361 C170.63938184 240.68594025 165.61195387 240.50746833 160.58154297 240.31762695 C158.31057155 240.24925402 156.03951959 240.18351401 153.7684021 240.12017822 C150.15221131 240.01881178 146.53616276 239.91552999 142.92026496 239.80415404 C133.92944144 239.5279623 124.93940978 239.33385644 115.94558716 239.18693542 C114.63020427 239.16537394 113.31482137 239.14381245 111.95957839 239.12159759 C107.22608009 239.04499816 102.49254444 238.97082986 97.75898418 238.89816321 C92.91527295 238.82378702 88.07162067 238.74650717 83.22802734 238.66479492 C82.53820314 238.65319494 81.84837894 238.64159496 81.13765098 238.62964346 C71.41185196 238.46195658 61.69360332 238.18904439 51.9727563 237.83866249 C35.20422666 237.23510098 18.44926389 236.85123716 1.66796875 236.84960938 C-0.26460958 236.84893833 -0.26460958 236.84893833 -2.2362299 236.84825373 C-31.25417679 236.94190494 -57.70230805 237.20300269 -79.38986206 258.55680847 C-87.54984093 267.06214991 -94.48202059 276.50554126 -100.29554558 286.75472546 C-100.65563272 287.33646684 -101.01571987 287.91820822 -101.38671875 288.51757812 C-101.71671875 288.51757812 -102.04671875 288.51757812 -102.38671875 288.51757812 C-102.48036258 261.95215142 -102.55079599 235.38674963 -102.59396744 208.82119083 C-102.61454983 196.48498564 -102.64258749 184.1488833 -102.68847656 171.81274414 C-102.72847697 161.05445245 -102.75418294 150.29623529 -102.76307273 139.5378713 C-102.76826517 133.84693668 -102.78037845 128.15621518 -102.80963898 122.4653492 C-102.83701708 117.096523 -102.84511895 111.72799544 -102.83914948 106.35910606 C-102.84023978 104.40052283 -102.848059 102.44192842 -102.86354065 100.48340607 C-103.06613966 73.50431679 -95.47869483 49.89297923 -76.72265625 29.88867188 C-55.12216498 7.9630896 -30.02689661 -0.14001238 0 0 Z " fill="#F96450" transform="translate(134.38671875,63.482421875)"/>
<path d="M0 0 C6.42958303 2.19924787 12.56352552 4.45226903 18.375 8 C19.00293457 8.38172363 19.63086914 8.76344727 20.27783203 9.15673828 C41.57370231 22.60929936 56.75129747 44.75257429 62.61543274 69.12503052 C64.56531427 78.55259376 64.39710038 87.90878225 64.34057617 97.49951172 C64.33972832 99.53110746 64.34020813 101.56270411 64.34190369 103.59429932 C64.34275888 109.06858439 64.32521075 114.54266931 64.30418181 120.01690817 C64.28533508 125.75305236 64.2836583 131.48920194 64.28010559 137.22537231 C64.27080852 148.06931916 64.24622655 158.91317448 64.21605712 169.75708115 C64.1824401 182.11024131 64.16600879 194.463406 64.15097082 206.81660056 C64.11967479 232.21111764 64.06696004 257.60555367 64 283 C59.12947078 279.10855449 55.25329056 275.04206977 51.37146282 270.1739732 C37.62575295 253.03833382 22.79882173 234.93076498 -0.05711126 231.91167349 C-11.90729854 230.82399434 -23.78872468 231.235096 -35.65643883 231.77264571 C-42.16234077 232.02064683 -48.66892936 232.02381699 -55.17883301 232.05525208 C-66.0725063 232.13205183 -76.95521915 232.36089122 -87.84375 232.69946289 C-98.99037263 233.04560166 -110.13425228 233.31510487 -121.28515625 233.47680664 C-122.3209384 233.49187606 -122.3209384 233.49187606 -123.37764543 233.50724991 C-128.22046653 233.57681472 -133.06334684 233.64152264 -137.90625 233.70507812 C-143.29693937 233.77619946 -148.687605 233.84878801 -154.07824707 233.92341614 C-155.38501042 233.94139686 -156.69177377 233.95937759 -158.03813601 233.97790319 C-165.73973556 234.0903213 -173.43854826 234.24969032 -181.13821697 234.45534265 C-185.92647102 234.58300025 -190.71502974 234.69603802 -195.50365448 234.80880356 C-197.70597254 234.86531602 -199.90811013 234.92952552 -202.1099472 235.00240898 C-230.04272546 235.92519161 -253.92702889 228.67903865 -274.703125 209.27172852 C-288.59578166 195.87163801 -298.65930843 179.42345867 -302.06298828 160.2722168 C-302.23951935 159.2841655 -302.41605042 158.2961142 -302.59793091 157.27812195 C-302.73061371 156.52634171 -302.86329651 155.77456146 -303 155 C-302.02891926 154.99668985 -301.05783852 154.99337971 -300.05733109 154.98996925 C-276.34989351 154.90871491 -252.64251887 154.81632168 -228.93516922 154.71247292 C-217.47013919 154.66250472 -206.00511574 154.61606096 -194.54003906 154.578125 C-184.53868744 154.54502308 -174.53738945 154.50509364 -164.53609729 154.45720994 C-159.24814037 154.43212448 -153.96021819 154.41029186 -148.67221832 154.39665604 C-143.67849332 154.38367063 -138.68488863 154.36144537 -133.69123077 154.33261681 C-131.87423009 154.32366794 -130.05721011 154.31788119 -128.2401886 154.31578636 C-118.89222886 154.30309748 -109.64328798 154.01376698 -100.33465576 153.11288452 C-99.53486715 153.03668558 -98.73507853 152.96048663 -97.9110539 152.88197863 C-70.87122268 150.00466116 -45.29519746 135.37789965 -27.4765625 115.0703125 C-13.15913295 97.32031309 -3.94096288 77.17808141 -1.90234375 54.33984375 C-1.81961212 53.43994217 -1.73688049 52.54004059 -1.65164185 51.61286926 C-0.75280446 41.15092775 -0.54720105 30.6818982 -0.375 20.1875 C-0.3366609 18.21157437 -0.29760113 16.23566259 -0.2578125 14.25976562 C-0.16362042 9.50662788 -0.07899343 4.75341361 0 0 Z " fill="#F9B300" transform="translate(416,165)"/>
<path d="M0 0 C1.60870113 0.02014328 3.21742729 0.0383799 4.82617188 0.0546875 C8.69725481 0.09795546 12.5670841 0.16652359 16.4375 0.25 C16.4375 0.58 16.4375 0.91 16.4375 1.25 C15.85484375 1.35957031 15.2721875 1.46914062 14.671875 1.58203125 C1.52911282 4.12379186 -10.07364846 7.28667741 -21.5625 14.25 C-22.13790527 14.59546875 -22.71331055 14.9409375 -23.30615234 15.296875 C-44.15074223 28.09126398 -59.4207267 48.66804598 -65.25740033 72.48205251 C-67.50740669 82.39641711 -67.97922253 91.55584072 -67.61645508 101.68237305 C-67.57427825 103.33908439 -67.53449783 104.99585815 -67.49688721 106.65267944 C-67.4148306 110.18360106 -67.32230102 113.7140331 -67.22309303 117.24451256 C-67.07164299 122.86180761 -66.98321061 128.47906417 -66.90934753 134.09785461 C-66.89660083 135.05386478 -66.88385413 136.00987494 -66.87072116 136.99485511 C-66.84499261 138.94803505 -66.81949873 140.90121809 -66.79423463 142.85440409 C-66.62508158 155.90190803 -66.42508932 168.94409729 -66.01635742 181.98657227 C-65.65857624 193.66156523 -65.44488287 205.3309378 -65.45703125 217.01171875 C-65.45776091 217.94424013 -65.45849057 218.8767615 -65.45924234 219.8375411 C-65.61773229 259.39225949 -65.61773229 259.39225949 -79.75773621 274.28852844 C-94.67922787 288.25 -94.67922787 288.25 -100.5625 288.25 C-100.65614383 261.68457329 -100.72657724 235.11917151 -100.76974869 208.55361271 C-100.79033108 196.21740752 -100.81836874 183.88130517 -100.86425781 171.54516602 C-100.90425822 160.78687433 -100.92996419 150.02865717 -100.93885398 139.27029318 C-100.94404642 133.57935856 -100.9561597 127.88863706 -100.98542023 122.19777107 C-101.01279833 116.82894488 -101.0209002 111.46041732 -101.01493073 106.09152794 C-101.01602103 104.1329447 -101.02384025 102.17435029 -101.0393219 100.21582794 C-101.24192091 73.23673866 -93.65447608 49.6254011 -74.8984375 29.62109375 C-54.04561133 8.45442906 -29.22821605 -0.65026569 0 0 Z " fill="#DC4632" transform="translate(132.5625,63.75)"/>
<path d="M0 0 C10.89 0 21.78 0 33 0 C33.99 3.96 34.98 7.92 36 12 C40.44101221 25.98096438 47.09831573 38.13272595 57 49 C57.62390625 49.70511719 58.2478125 50.41023438 58.890625 51.13671875 C74.73780265 68.08254527 95.7527064 75.39854374 118 79 C118 79.33 118 79.66 118 80 C113.04196767 80.10065499 108.08455998 80.17228729 103.12573242 80.21972656 C101.44724135 80.23955063 99.76881647 80.26661836 98.09057617 80.30175781 C71.4237793 80.84516272 47.98360465 72.66144263 28.296875 54.27172852 C12.37711513 38.91640604 3.93588908 21.64738997 0 0 Z " fill="#DC9600" transform="translate(113,320)"/>
<path d="M0 0 C5.67476113 1.96434039 9.31400331 5.62800662 12 11 C12.54360446 15.95482094 12.56437074 19.87125852 10.3125 24.375 C6.72054254 28.45235712 3.52833982 31.59004052 -2.05078125 32.23828125 C-7.58896758 32.42001793 -10.64755155 31.74513006 -15 28 C-19.3022759 23.23261319 -20.36282503 19.56252705 -20.28125 13.28125 C-19.69180611 8.50020514 -16.85179203 5.75038822 -13.375 2.6875 C-8.92314854 -0.47565762 -5.3540278 -0.48837416 0 0 Z " fill="#F0ECEC" transform="translate(276,176)"/>
<path d="M0 0 C5.67476113 1.96434039 9.31400331 5.62800662 12 11 C12.54360446 15.95482094 12.56437074 19.87125852 10.3125 24.375 C6.72054254 28.45235712 3.52833982 31.59004052 -2.05078125 32.23828125 C-7.58896758 32.42001793 -10.64755155 31.74513006 -15 28 C-19.3022759 23.23261319 -20.36282503 19.56252705 -20.28125 13.28125 C-19.69180611 8.50020514 -16.85179203 5.75038822 -13.375 2.6875 C-8.92314854 -0.47565762 -5.3540278 -0.48837416 0 0 Z " fill="#F0ECEC" transform="translate(228,176)"/>
<path d="M0 0 C5.67476113 1.96434039 9.31400331 5.62800662 12 11 C12.54360446 15.95482094 12.56437074 19.87125852 10.3125 24.375 C6.72054254 28.45235712 3.52833982 31.59004052 -2.05078125 32.23828125 C-7.58896758 32.42001793 -10.64755155 31.74513006 -15 28 C-19.3022759 23.23261319 -20.36282503 19.56252705 -20.28125 13.28125 C-19.69180611 8.50020514 -16.85179203 5.75038822 -13.375 2.6875 C-8.92314854 -0.47565762 -5.3540278 -0.48837416 0 0 Z " fill="#F0ECEC" transform="translate(180,176)"/>
</svg>
